<svg width="360" height="40" viewBox="0 0 360 40" fill="none" xmlns="http://www.w3.org/2000/svg">
<path fill-rule="evenodd" clip-rule="evenodd" d="M4 0H356C358.2 0 360 1.8 360 4V40H0V4C0 1.8 1.8 0 4 0ZM16.9288 23.5C18.1793 25.6658 20.4901 27 22.991 27C26.857 27 29.991 23.866 29.991 20C29.991 16.134 26.857 13 22.991 13C20.4901 13 18.1793 14.3342 16.9288 16.5C15.6784 18.6658 15.6784 21.3342 16.9288 23.5ZM46.002 27C43.5011 27 41.1903 25.6658 39.9398 23.5C38.6894 21.3342 38.6894 18.6658 39.9398 16.5C41.1903 14.3342 43.5011 13 46.002 13C49.868 13 53.002 16.134 53.002 20C53.002 23.866 49.868 27 46.002 27ZM62.9508 23.5C64.2013 25.6658 66.5121 27 69.013 27C72.879 27 76.013 23.866 76.013 20C76.013 16.134 72.879 13 69.013 13C66.5121 13 64.2013 14.3342 62.9508 16.5C61.7004 18.6658 61.7004 21.3342 62.9508 23.5Z" fill="#4D4D4D"/>
</svg>
